<svg id="Capa_1" enable-background="new 0 0 512 512" height="512" viewBox="0 0 512 512" width="512" xmlns="http://www.w3.org/2000/svg"><g><g><path d="m84.383 0v512h203.056l32.471-218.05-32.471-293.95z" fill="#7d89e5"/><path d="m287.439 0h175.146v512h-175.146z" fill="#706bef"/></g><g><path d="m49.415 41.648h72v30.091h-72z" fill="#203bd9"/></g><g><path d="m49.415 108.873h72v30.091h-72z" fill="#203bd9"/></g><g><path d="m49.415 176.098h72v30.091h-72z" fill="#203bd9"/></g><g><path d="m49.415 243.323h72v30.091h-72z" fill="#203bd9"/></g><g><path d="m49.415 310.547h72v30.091h-72z" fill="#203bd9"/></g><g><path d="m49.415 377.772h72v30.091h-72z" fill="#203bd9"/></g><g><path d="m49.415 444.997h72v30.091h-72z" fill="#203bd9"/></g><g><path d="m196.419 391.509h91.02l20.183-15.046-20.183-15.046h-91.02z" fill="#706bef"/><path d="m196.419 451.696h91.02l16.617-15.046-16.617-15.046h-91.02z" fill="#706bef"/><path d="m196.148 93.112v144.176h91.291l37.425-72.088-37.425-72.088z" fill="#faf4f9"/></g><path d="m287.439 93.112h91.291v144.177h-91.291z" fill="#f0edef"/><g fill="#6260d0"><path d="m287.439 361.417h91.02v30.091h-91.02z"/><path d="m287.439 421.604h91.02v30.091h-91.02z"/></g></g></svg>